<?xml version="1.0"?><svg version="1.2" baseProfile="tiny-ps" viewBox="0 0 300 300" xmlns="http://www.w3.org/2000/svg" xmlns:xlink="http://www.w3.org/1999/xlink"><title>WD</title><g><g fill="#fcfdfb" transform="matrix(.1 0 0 -.1 0 300)"><path d="M0 1500V0h3000v3000H0V1500z"/></g><g fill="#ebe6d2" transform="matrix(.1 0 0 -.1 0 300)"><path d="m496 2292-120-3-13-11-13-11 5-101c3-55 7-139 10-186 2-47 7-132 10-190 6-108 21-380 30-530 3-47 12-173 20-280s15-205 15-217v-22l81-71 80-71 142 4c78 3 148 6 155 8l12 2 5 21c2 12 7 39 10 61 8 52 62 294 72 325l5 15 19-55c11-30 29-94 40-141l21-87 80-73 80-72 41-8 42-8 80 5c44 3 99 7 121 10l42 5 5 20c3 10 6 137 6 282 2 382 10 749 21 932 6 88 11 186 12 218l1 58-20 27c-11 15-52 55-91 90l-72 62h-249l-26-10-26-10 7-230c4-126 5-230 2-230s-24 37-47 83l-42 82-71 58-71 58-16-3-15-3-19-50c-10-28-21-53-25-57l-7-7 3 67 4 67-18 33-17 33-66 53-66 53-25 4c-14 2-79 3-144 1zm547-722c10-30 23-59 29-65l11-10-5 10c-3 6-13 34-22 63l-15 53 10-3c10-3 78-190 79-216v-14l-62 6c-35 4-80 9-100 12l-37 6-7 34c-8 43-19 43-34 0l-11-34-17-7c-9-4-49-9-88-12l-71-6-7 12-7 11 26 93c15 50 33 99 41 107l14 14v-26l13 10 13 11 54 3c30 2 82 3 114 3h60l19-55zm-606 0c6-22 19-27 25-9l3 10 85-16 85-17-2-47c-2-66-3-69-15-41l-11 25-4-18-5-19-21 5c-12 3-39 9-59 12-40 8-53 18-61 50l-5 20-1-22c-1-26-11-29-29-11l-12 12v86h11c6 0 13-9 16-20zm896-27 67-6v-177h-50v140h-23l7-71 7-72-65 7c-36 4-73 9-81 12l-15 6v168h43c23 0 72-3 110-7zm-889-91c3-5 18-9 33-10 15 0 55-10 88-22 33-11 62-20 65-20s6-25 8-55l3-55h8c7 0 34 46 35 62 2 16 21 22 76 22l60 1v-27l20 5 20 5v-48h-23l6-7 7-7-32-13-32-14-8 13c-4 7-8 25-8 40v26l10 5 11 6-13-3-13-3-5-44-5-44-43-9-43-9-87 11-86 10-4 10-3 10-17-4c-9-2-23 0-30 4l-13 9-6 81-5 82h10c6 0 13-4 16-8zm759-145-4-22 15 25c8 14 15 20 16 15v-11h23c12 0 25 4 28 9l7 9 22-7 23-7-14-9-14-9h35v-48l-67-8-67-7-80 6c-45 3-96 9-113 13l-33 7v19l25-6c31-8 33 1 3 14l-23 9h22l22 1 7-11 7-11 7 12 7 12 24-12 24-11-19 15c-11 9-23 16-28 16-4 0-8 5-8 11v11l14-11 15-12 38-2 38-2 12-15 12-15 7 32 6 33 8-5 8-5-5-23zm191-32 5-15h-38l5 15c4 8 10 15 14 15s10-7 14-15zm-639 291c-3-9-7-23-10-31l-4-15h8c10 0 25 50 17 58-3 2-8-3-11-12zm931 725-29-6 2-765 2-765 69-69 69-69 53-9c29-5 145-10 258-12l205-3 80 13c44 8 102 23 128 34l48 19 52 45 52 44 34 56c18 31 47 95 63 142l30 87 8 141 7 141-8 155c-10 177-14 207-40 309-21 80-33 106-84 186l-34 53-66 59-66 60-80 47c-43 26-107 59-141 73l-62 25-85 9c-96 10-420 10-465 0zm547-437 38-7 14-33c7-18 19-68 25-111l12-78-6-162-7-162-16-53c-8-29-24-70-34-90l-19-38-40-26-40-26-13 5-14 5 4 379c3 208 6 384 8 391l4 12h23c13 0 40-3 61-6zm-510-124 5-19-12-4-11-4 13-23 14-22-14 4-13 5-2 41-2 42h8c5 0 11-9 14-20zm873-16 1-31h-26l5 8c2 4 0 10-5 13l-9 6-5-13c-3-8-2-20 3-27l8-13 11 7 11 7v-71l-12-1-13-1 13-5c6-2 12-9 12-14v-10l-11 6-10 7 3-18 3-19-50-9c-27-6-53-14-56-19l-6-9-8 11c-4 7-4 18-1 26l5 15h-9c-4 0-11-13-15-29l-6-29-35-4-35-4-8 15c-10 20-14 125-6 151l6 19 37 10 36 11 8-13c4-6 8-23 9-37l2-25 6 44 6 44 55 18c30 10 62 17 70 16l14-2 2-31zm-701-54c-4-6-12-10-20-10h-14l-7-22-7-22-13 19-14 18 9 11c5 6 23 12 41 13l31 2-6-9zm-175-30v-20h-20v40h20v-20zm210-42v12h30l2-42c1-42 1-96-1-110-1-8-51-22-113-34l-38-6v87l-10-15c-5-8-10-30-10-47v-33h-17c-10 0-35-3-56-6l-38-7 3 84 3 84 49 10 50 9 4-12c5-17 22-15 22 2v15l21 6c11 4 23 5 25 2 3-3 17-2 32 2l27 8 7-11 8-11v13zm630-128v-50h-24c-13 0-63-11-111-25s-90-24-92-21c-3 2-1 24 4 48l8 43 55 18c51 17 117 33 148 36l12 1v-50zm50 5v-45h-30v90h30v-45zm-180-203c0-5-7-9-15-9s-15 4-15 9c0 4 7 8 15 8s15-4 15-8zm-44-11c-3-5-17-11-31-13l-25-5 11 13c6 8 20 14 31 14h19l-5-9zm-636-42 25-1-13-5c-7-3-24-2-37 1l-25 6v24l12-12c7-7 23-12 38-13zm171 275 1-19 5 13c3 7 2 16-1 19-3 4-6-2-5-13z"/></g><g fill="#edc29a" transform="matrix(.1 0 0 -.1 0 300)"><path d="m1215 2290-70-5v-243c0-133-3-242-6-242s-25 41-49 90l-43 90-75 60-75 60-13-11c-7-6-24-42-36-80l-22-70-8 21-8 22 4 58 4 59-12 40-11 40-73 56-72 55H521c-71 0-136-3-145-6l-16-6v-82c0-44 5-160 10-256 6-96 19-326 30-510s25-414 31-510l12-175 16-15c9-8 41-36 71-62l55-46 41-11 40-11 72 3 71 4 46 24 46 24-6 32-6 31 11 7 10 6v59h21l-5 9c-3 4 6 48 20 97s30 109 36 134l11 45 13-30c7-16 27-88 46-159l33-128 63-59c34-33 75-67 90-77l26-17 128 1h128l17 17 16 16-1 43c-1 24-3 71-5 105-1 35 0 63 4 63 3 0 5 31 4 70l-2 69 9-5 8-5v10c0 6-5 11-11 11h-10l8 12 8 13 1 115c2 134 13 487 19 610 2 47 7 144 11 217l7 132-18 38-18 38-45 40c-25 22-59 50-76 63l-31 23-65-3c-36-2-96-5-135-8zm205-30v-20l-26 10c-28 11-130 13-186 4l-38-7v-75c0-97-7-90-11 13l-4 80 30 6c17 4 76 7 133 8l102 1v-20zm-780 1v-8l-117-7c-64-4-120-9-124-12l-8-4 5-83c3-45 7-106 10-134l5-53 10-5 9-6v-79h-7c-5 0-14 4-20 8l-13 8-8 179-8 180 9 13 9 12h248v-9zm289-223c15-42 14-59-2-29-6 13-16 24-22 25l-10 1-25-77c-14-43-28-78-32-78s-5 6-3 13c2 6 16 51 30 99l26 87 14-5c7-3 18-19 24-36zm346-59-7-10 21-6 21-5v-42c0-22 3-72 7-109l6-68 8 8c4 4 9 40 10 78 2 83 3 85 30 78l20-6-5-13-5-13 12-4 12-4 3-146 4-147-23-9-24-10h24l24-1-7-142-8-143-11-7c-7-5-19-7-27-6-8 2-21-1-28-6l-13-8-125 1c-126 0-185 6-216 22l-16 9-13 70c-7 39-16 73-21 76-4 3-8 16-8 30v24h-9c-8 0-31-75-46-147l-6-32-37-12-37-13 25-6 25-6-3-35c-1-19-7-51-13-71l-10-38h-38l-4 23-4 22-2-27-1-28-27-7c-33-10-204-9-252 0-19 4-38 13-43 20-4 6-8 45-8 85v72h8c13 0 27-15 39-40l12-25v23l1 22h16c8 0 24-5 34-10 10-6 38-11 60-12l42-1 6-15 5-16 7 20 7 19 39 6 39 6-94 2-95 1-60 16c-34 10-64 20-67 23-7 6-12 92-24 361-3 74-8 152-11 173l-4 38 22-3 23-3 6-55 6-55 3 60c1 33 2 68 1 78l-2 17h26l1-22c3-48 14-132 19-136 3-3 6 17 6 44 2 80 9 168 14 182l4 12 18-1 18-1-12-5c-19-7-16-23 4-23 9 0 25-7 35-17l18-16v-25c0-32 9-24 12 11 1 15 6 27 10 27h8l2-52c0-29 2-57 3-63 2-5 3-125 4-264l1-255 9 10c5 5 23 61 41 124 17 63 54 184 82 268l50 152h9c13 0 12-10-12-85-29-96-18-103 15-9 16 43 33 85 38 92l10 12h56l12-15 13-16 8 13 8 13 9-10c8-8 94-269 157-478 10-32 21-60 25-62l8-5-5 309-6 309 7 26 6 26 28-14 28-15 13 8c6 4 11 12 10 17-3 16 1 24 12 24h10l-6-11zm-305-66 8-33h-8c-4 0-10 15-12 33-3 17-8 41-12 52l-8 20 13-19c6-11 15-34 19-53zm-500 12c0-8-4-15-10-15h-9l5 15c4 8 8 15 10 15s4-7 4-15zm800-717 55-1 8-21 8-21 8 14 8 13 19-4 19-3v-100l-22-3-23-3v26l-9-14-9-13-155 4c-86 2-158 6-161 9s-8 24-12 49l-7 43 16-6 17-6v38l23 3c12 2 54 2 92 0 39-2 95-4 125-4zm-265-8 6-10h-10c-6 0-11 5-11 10 0 6 2 10 4 10 3 0 8-4 11-10zm-225 440c0-5 5-10 10-10 6 0 10 5 10 10 0 6-4 10-10 10-5 0-10-4-10-10zm-22-377c-3-4-2-19 2-33l6-25 7 25 6 25-8 8-9 9-4-9zm-277-119 1-19 5 13c3 7 2 16-1 19-3 4-6-2-5-13zm1183 1131c-4-8-4-353-1-767l5-751 67-67 67-68 42-7c22-4 119-9 213-11l173-3 5 9 6 9 22-8 22-8 25 8c14 4 50 7 81 8l56 1 39 28c21 16 45 36 53 45 7 9 19 17 25 17 7 0 23 12 37 26 13 14 34 30 46 35l22 8 27 41 28 42-13 7-13 8 16 6 15 6 7 38c4 21 10 43 13 48 9 13 31 77 38 113 9 38 8 411-1 502-8 89-20 165-26 165-1 0-4 16-6 35l-5 35-40 81-39 81-63 61c-80 80-139 121-251 176l-91 44-53 11-53 11h-490l-5-15zm491-5 90-9 70-35 70-35 50-47c57-52 46-49-37 12l-58 42-62 21c-35 12-97 25-138 31l-75 9-167 1c-91 0-173-3-182-6l-16-6v-137l-10-6-10-6v170l48 4c100 8 341 6 427-3zm366-227 14-18-17 14c-10 7-18 15-18 17 0 8 8 3 21-13zm-565-58c-1-46-16-46-16 0v35h17l-1-35zm304 20c7-8 20-15 29-15h16l28-30c29-30 47-38 47-20v10h28l27 1-18 13-17 13h80l11-13c6-8 17-14 24-14s15-7 19-15c3-8 10-15 15-15h10l-10 32c-5 18-9 37-9 43 1 17 39-59 40-77v-18h-107c-60-1-127-5-150-9l-43-8-15 23c-8 13-35 35-60 50l-46 26 18 13c15 11 37 19 64 24 4 0 12-6 19-14zm-475-38v-12h60l11-45 11-45 6 34c4 18 7 44 7 57v24h10c10 0 14-21 11-47-1-7 4-23 11-35l12-23 6 29 5 29 15 4 15 5-15-11-15-11h23l-1-57-2-58h-17c-9 0-20-4-24-8s-18-7-31-7h-23v-17l43 8c23 4 48 8 55 9h12l-2-177-3-178-70-17-70-18 42 5 42 5 6-10 6-10 16 16 16 15 8-13 9-13v-164l-66-21-66-20h-159l3 389 3 389 7 7 7 7 18-6 17-7-14-10-15-9 15-10 15-9 1-83 1-83 8 2 8 3 3 76c1 42 5 92 9 111l6 35 7-7c4-4 7-12 7-18zm805-107c14-22 23-206 21-403l-1-48-17 2c-10 1-27 1-38 0l-19-1 12-12 12-12 1-35 1-36 11 43 10 42h27v-47c0-27-3-65-6-85l-7-37-18 9-18 10h-106l-46-14c-26-8-62-22-79-31l-33-17 5 14c3 7 11 40 18 73l13 60 1 200 1 200-18 61c-9 34-17 64-17 67 0 11 47 14 164 12l118-3 8-12zm-314-25 22-24 12-73 13-73-6-195-6-195-17-50c-10-27-28-67-42-87l-24-37-45-21-45-21-7 6-6 7 3 386 3 387 17 13 17 13 45-7 45-6 21-23zm274-617c0-4 9-8 20-8h20v-30h-12c-7 0-48-14-90-30l-78-30-61-5-61-5 4 13c3 6 14 16 26 22 12 5 22 13 22 17 0 5 5 8 11 8 7 0 17 8 24 17l12 17 69 11c83 14 94 14 94 3zm-640-52v-16l-22-4c-37-8-105-15-85-9l19 5-4 16-5 17 49 3 48 3v-15zm-140-15c0-3-19-7-42-8l-42-3 10 9c18 18 74 20 74 2zm470-65c0-2-17-15-39-30l-39-27-91-6-91-6v21h64c67 1 125 13 166 37 28 16 30 17 30 11zm-445 711c-4-10-5-21-1-24 10-10 18 4 13 24l-4 18-8-18zm2-394c-3-5-1-28 3-53l7-45 2 53c1 49-2 62-12 45zm708-3-20-9h23l22-1v10c0 6-1 10-2 9-2 0-12-4-23-9z"/></g><g fill="#8abdbf" transform="matrix(.1 0 0 -.1 0 300)"><path d="M635 2280c3-5 6-166 7-357s4-406 7-478l6-130 19 75c11 41 38 136 61 210 88 281 97 311 92 316-2 3-9-9-15-25-6-17-13-31-16-31s-5 62-5 138v158l-1 22-73 56c-40 31-77 56-81 56h-7l6-10zm518 3-13-5 2-106 2-107 5 105 6 105 95 6 95 5-90 1c-49 1-96-1-102-4zm246-2 25-7-3-269c-1-149-6-375-11-504l-10-235-12-8c-7-4-20-7-28-6-8 2-21-1-28-6l-13-8-125 1c-125 0-185 6-215 22l-17 8-12 67c-7 36-20 82-30 101l-17 35-16-58c-8-33-18-73-22-91l-6-32-37-12-37-13 25-6 25-6-3-35c-1-19-7-51-13-71l-10-38h-38l-4 23-4 22-2-27-1-28-27-7c-33-10-204-9-252 0-19 4-38 13-43 20-4 6-8 45-8 85v72h8c13 0 27-15 39-40l12-25v23l1 22h16c8 0 24-5 34-10 10-6 38-11 60-12l42-1 6-15 5-16 7 20 7 19 39 6 39 6-94 2-95 1-60 16-61 17-12 15-13 16v-20c0-10 7-139 17-285l16-267 59-47 58-47 138 3 137 3 18 8 17 9v24c0 31 45 274 71 388l21 89 8-9c5-4 32-96 61-203l53-195 15-19c9-10 38-36 64-57l49-39h297l5 9c3 5 13 206 21 447 8 242 17 482 19 534 3 52 8 192 12 310l6 215-71 63-72 62-27-1-27-1 24-7zm-129-1073 55-1 8-21 8-21 8 14 8 13 19-4 19-3v-100l-22-3-23-3v26l-9-14-9-13-155 4c-86 2-158 6-161 9s-8 24-12 49l-7 43 16-6 17-6v38l23 3c12 2 54 2 92 0 39-2 95-4 125-4zm-265-8 6-10h-10c-6 0-11 5-11 10 0 6 2 10 4 10 3 0 8-4 11-10zm713 1083c12-2 32-2 45 0l22 4h-90l23-4zm-1351-10c-4-3-6-29-5-57l1-51 4 45 4 45 16 13 17 12h-15c-9 0-19-3-22-7zm1295-85c1-95 5-83 10 30l3 62h-15l2-92zm723 10c17-12 54-45 83-72l53-50 30-63 30-63 14-68 15-67 6-176 7-176-7-27-7-27-17 2c-9 1-26 1-36 0l-20-1 12-12 12-12 1-36 1-35 11 43 10 42h27v-47c0-27-3-65-6-85l-7-37-18 9-18 10h-106l-46-14c-26-8-62-22-79-31l-33-17 8 29c18 67 24 112 23 173l-1 65-8-85c-10-102-23-159-50-211l-19-39-38-25c-20-13-52-27-70-31l-32-7 1 369c1 203 4 388 6 412l5 42h136l21-32c11-18 21-28 21-22s-13 30-30 55l-29 44-37 25-37 24-98 4-99 4-2-273-3-274-70-17-70-18 42 5 42 5 6-10 6-10 16 16 16 15 8-13 9-13v-164l-66-21-66-20h-158v102c0 56-2 99-5 96-3-2-6-145-7-317l-2-313 51-49 51-49 145-11 146-11 153 11 153 11 45 16c65 23 153 79 189 120 65 73 113 195 133 339l13 90v530l-18 68c-9 37-28 89-41 115l-24 47-48 43c-26 23-52 42-58 42-5 0-7 3-3 6 12 12-60 69-148 118l-50 27 30-23zm165-980c0-4 9-8 20-8h20v-30h-12c-7 0-48-14-90-30l-78-30-61-5-61-5 4 13c3 6 14 16 26 22 12 5 22 13 22 17 0 5 5 8 11 8 7 0 17 8 24 17l12 17 69 11c83 14 94 14 94 3zm-640-52v-16l-22-4c-37-8-105-15-85-9l19 5-4 16-5 17 49 3 48 3v-15zm-140-15c0-3-19-7-42-8l-42-3 10 9c18 18 74 20 74 2zm470-65c0-2-17-15-39-30l-39-27-91-6-91-6v21l88 4 87 4 40 22c44 23 45 24 45 18zM373 2020v-75l4 38c2 20 2 54 0 75l-4 37v-75zm503 54c-9-23-4-24 17-2l17 18h-14c-8 0-17-7-20-16zm49-9c21-48 186-565 221-693 9-34 21-65 25-68l9-5-5 123c-3 68-8 155-10 193-2 39-5 147-7 240l-2 170-6-145-5-145-39 99c-22 54-45 104-52 111l-13 13 7 7 7 7-10-3c-5-1-18 1-27 4-10 4-25 9-34 12l-15 5 6 10 6 10h-10c-6 0-13 11-17 25-3 13-13 30-22 37l-16 13 9-20zm220-15c3-5 8-10 11-10 2 0 4 5 4 10 0 6-5 10-11 10h-10l6-10zm-299-55c-3-9-6-22-5-28 0-7 5-1 10 12s8 26 5 28c-2 2-6-3-10-12zm-463-150v-50l4 28c2 15 2 37 0 50l-4 22v-50zm1928-91 1-19 5 13c3 7 2 16-1 19-3 4-6-2-5-13zm12-69v-40l4 23c2 12 2 30 0 40l-5 17 1-40zm-1932-61 1-19 5 13c3 7 2 16-1 19-3 4-6-2-5-13zm11-149v-30l5 18c2 9 2 23 0 30l-5 12v-30zm1395-72c-3-5-1-28 3-53l7-45 2 53c1 49-2 62-12 45zm708-3-20-9h23l22-1v10c0 6-1 10-2 9-2 0-12-4-23-9zM758 1263c-3-4-2-19 2-33l6-25 7 25 6 25-8 8-9 9-4-9zm-277-119 1-19 5 13c3 7 2 16-1 19-3 4-6-2-5-13z"/></g><g fill="#3e7e8b" transform="matrix(.1 0 0 -.1 0 300)"><path d="M1213 2283c26-2 67-2 90 0l42 4-90-1h-90l48-3zm187-2 24-7-2-209c-2-227-13-681-17-730-2-16-3-83-4-147l-1-117-45 1c-25 0-49-2-52-6l-6-6h43V900h-205l-24 25-23 25h-35l-12 43c-7 23-15 50-18 61l-5 18 13-4c7-2 18-20 25-39l12-34 1 20c0 11-4 27-9 35l-9 15 37 6 37 6-56 2-56 1-18 68c-78 295-84 316-90 310-7-7-94-348-114-448-9-47-20-91-25-98l-7-12h-88l-4 17-5 18-1-17-1-18h-49c-27 0-63 3-80 6l-31 7v32l-10-15-9-15-18 11-18 11-3 79-3 79-11 10-11 10 6-40c4-22 10-105 13-183l7-143 56-50 56-51 140 3 140 3 18 8 17 9v24c0 31 45 274 71 388l21 89 7-9c14-15 52-141 111-370l10-42 61-50 61-51h297l5 9c3 5 13 206 21 447 8 242 17 482 19 534 3 52 8 192 12 310l6 215-71 63-72 62-27-1-27-1 25-7zm-12-1310-3-66-19-3-19-4 7 63c5 35 8 72 8 82l-1 19 15-13 15-12-3-66zm-277-57 13-16-29 4-28 3-5 13-4 12h40l13-16zm607 1369c12-2 32-2 45 0l22 4h-90l23-4zm-1351-10c-4-3-6-29-5-57l1-51 4 45 4 45 16 13 17 12h-15c-9 0-19-3-22-7zm275-345c1-194 4-409 7-478l6-125 24 85c13 47 40 139 61 205 78 249 92 296 87 301-2 3-9-9-15-25-6-17-13-31-16-31s-5 62-5 138v158l-1 22-66 51c-37 28-70 51-75 51h-8l1-352zm502 339c-3-8-3-56-2-108l3-94 5 108c3 59 4 107 2 107-1 0-5-6-8-13zm518-79c1-95 5-83 10 30l3 62h-15l2-92zm723 10c17-12 54-45 83-72l53-50 30-63 30-63 14-68 14-67 7-155 6-155-10-150-9-150-23-83-23-82-28-14c-16-8-43-17-60-21l-32-7 7 11 7 10-28-14c-15-8-35-15-45-15-9 0-60-12-115-26l-98-27-140-6c-77-3-186-5-243-3l-103 3 3 92 3 91 43 4 43 4 13-11 13-11 1-31c1-47 12-48 12-1v41l34 6c19 4 42 5 52 3l18-3 4-40c5-52 12-58 13-12 2 56 3 60 17 65l12 4v-92l73 1c39 1 83 5 97 9l25 8-23 1-22 1 1 368c1 202 4 386 6 410l5 42h136l21-32c11-18 21-28 21-22s-13 30-30 55l-29 44-37 25-37 24-98 4-99 4v-832l-7-1c-5-1-19-4-33-7s-78-5-142-6l-118-1V752l50-45 50-45 52-6c29-3 100-8 158-12l105-6 140 11 140 11 45 16c65 23 153 79 189 120 65 73 113 195 133 339l13 90v530l-18 68c-9 37-28 89-41 115l-24 47-48 43c-26 23-52 42-58 42-5 0-7 3-3 6 12 12-60 69-148 118l-50 27 30-23zM373 2020v-75l4 38c2 20 2 54 0 75l-4 37v-75zm503 54c-9-23-4-24 17-2l17 18h-14c-8 0-17-7-20-16zm49-9c11-26 110-328 170-520 25-82 53-168 61-190l14-40-5 240c-3 132-6 292-7 355l-2 115-6-145-5-145-39 99c-22 54-45 104-52 111l-13 13 7 7 7 7-10-3c-5-1-18 1-27 4-10 4-25 9-34 12l-15 5 6 10 6 10h-10c-6 0-13 11-17 25-3 13-13 30-22 37l-16 13 9-20zm220-15c3-5 8-10 11-10 2 0 4 5 4 10 0 6-5 10-11 10h-10l6-10zm-299-55c-3-9-6-22-5-28 0-7 5-1 10 12s8 26 5 28c-2 2-6-3-10-12zm-463-150v-50l4 28c2 15 2 37 0 50l-4 22v-50zm1928-91 1-19 5 13c3 7 2 16-1 19-3 4-6-2-5-13zm12-69v-40l4 23c2 12 2 30 0 40l-5 17 1-40zm-1932-61 1-19 5 13c3 7 2 16-1 19-3 4-6-2-5-13zm11-149v-30l5 18c2 9 2 23 0 30l-5 12v-30zm1921-70v-50l4 28c2 15 2 37 0 50l-4 22v-50zm-32-201 1-19 5 13c3 7 2 16-1 19-3 4-6-2-5-13zm-25-52c-9-17-30-43-48-58l-33-27 25 15c30 18 86 86 77 94-3 3-13-8-21-24zm-1504-99 1-48 4 40 4 40 12 7 12 8h-35l2-47zm-275-5c8-46 13-48 13-5v37h-19l6-32zm1838 5-40-26 11-4c10-3 74 33 93 53 15 15-31-2-64-23zm-1127 10c17-2 47-2 65 0l32 4h-130l33-4zm837-93-6-10 23 1c13 1 34 5 48 9l25 8-42 1-42 1-6-10zm-47-7c7-3 16-2 19 1 4 3-2 6-13 5l-19-1 13-5z"/></g><g fill="#8e5d46" transform="matrix(.1 0 0 -.1 0 300)"><path d="M1213 2283c26-2 67-2 90 0l42 4-90-1h-90l48-3zm186-2 24-6-2-315c-1-173-4-317-6-320s-6-181-10-395c-3-215-8-414-11-442l-5-53-112-1c-62-1-125 0-140 1l-29 2 9-15c4-8 28-31 51-51l44-36h297l5 9c3 5 13 206 21 447 8 242 17 482 19 534 3 52 8 192 12 310l6 215-71 63-72 62-27-1-27-1 24-7zm319 2c12-2 32-2 45 0l22 4h-90l23-4zm-1351-10c-4-3-6-29-5-57l1-51 4 45 4 45 16 13 17 12h-15c-9 0-19-3-22-7zm275-345c1-194 4-409 7-478l6-125 24 85c13 47 40 139 61 205 78 249 92 296 87 301-2 3-9-9-15-25-6-17-13-31-16-31s-5 62-5 138v158l-1 22-66 51c-37 28-70 51-75 51h-8l1-352zm502 339c-3-8-3-56-2-108l3-94 5 108c3 59 4 107 2 107-1 0-5-6-8-13zm518-79c1-95 5-83 10 30l3 62h-15l2-92zm723 10c17-12 54-45 83-72l53-50 30-63c16-35 37-93 45-131l15-67 3-205 4-205-9-120-8-120-27-83-27-84-42-57c-76-103-158-153-294-177l-76-13-222-1h-223v-9c0-5 18-25 41-44l40-35 52-6c29-3 99-8 157-12l105-6 140 11 140 11 45 16c65 23 153 79 189 120 65 73 113 195 133 339l13 90v530l-18 68c-9 37-28 89-41 115l-24 47-48 43c-26 23-52 42-58 42-5 0-7 3-3 6 12 12-60 69-148 118l-50 27 30-23zM373 2020v-75l4 38c2 20 2 54 0 75l-4 37v-75zm503 54c-9-23-4-24 17-2l17 18h-14c-8 0-17-7-20-16zm49-9c11-26 110-328 170-520 25-82 53-168 61-190l14-40-5 240c-3 132-6 292-7 355l-2 115-6-145-5-145-39 99c-22 54-45 104-52 111l-13 13 7 7 7 7-10-3c-5-1-18 1-27 4-10 4-25 9-34 12l-15 5 6 10 6 10h-10c-6 0-13 11-17 25-3 13-13 30-22 37l-16 13 9-20zm220-15c3-5 8-10 11-10 2 0 4 5 4 10 0 6-5 10-11 10h-10l6-10zm-299-55c-3-9-6-22-5-28 0-7 5-1 10 12s8 26 5 28c-2 2-6-3-10-12zm1126-481 3-469 57-3 57-3 33 10 33 9-23 1-22 1 1 368c1 202 4 386 6 410l5 42h136l21-32c11-18 21-28 21-22s-13 30-30 55l-29 44-37 25-37 24-98 4-99 4 2-468zM383 1845v-50l4 28c2 15 2 37 0 50l-4 22v-50zm1928-91 1-19 5 13c3 7 2 16-1 19-3 4-6-2-5-13zm12-69v-40l4 23c2 12 2 30 0 40l-5 17 1-40zm-1932-61 1-19 5 13c3 7 2 16-1 19-3 4-6-2-5-13zm11-149v-30l5 18c2 9 2 23 0 30l-5 12v-30zm490-57c-31-116-75-311-107-478-20-101-39-187-42-190-2-3-70-5-150-5H448l53-48 54-49 140 3 140 3 18 8 17 9v24c0 30 45 274 71 388l21 87 8-5c4-2 13-26 20-52l12-48 5 13c3 7-4 43-15 80s-32 117-47 177c-16 61-31 114-35 118l-7 8-11-43zm1431-13v-50l4 28c2 15 2 37 0 50l-4 22v-50zm-32-201 1-19 5 13c3 7 2 16-1 19-3 4-6-2-5-13zm-25-52c-9-17-30-43-48-58l-33-27 25 15c30 18 86 86 77 94-3 3-13-8-21-24z"/></g></g></svg>